<svg width="288" height="259" viewBox="0 0 288 259" fill="none" xmlns="http://www.w3.org/2000/svg">
<rect opacity="0.3" x="152.23" y="80.1914" width="31.9357" height="8.54291" transform="rotate(30 152.23 80.1914)" fill="white"/>
<rect opacity="0.3" width="30.7185" height="5.89414" transform="matrix(0.870455 0.492249 0.492249 -0.870455 106.039 111.582)" fill="white"/>
<path fill-rule="evenodd" clip-rule="evenodd" d="M118.782 128.552L143.114 114.396L165.074 126.944C166.197 127.585 167.129 128.512 167.778 129.63C168.427 130.748 168.769 132.018 168.768 133.31V150.455C168.769 151.748 168.427 153.017 167.778 154.135C167.129 155.253 166.197 156.18 165.074 156.821L146.749 167.292C145.642 167.924 144.389 168.257 143.114 168.257C141.838 168.257 140.585 167.924 139.478 167.292L121.153 156.821C120.031 156.18 119.098 155.253 118.449 154.135C117.8 153.017 117.459 151.748 117.459 150.455V140.186" fill="#2B2F7E" fill-opacity="0.05"/>
<path d="M118.782 128.552L143.114 114.396L165.074 126.944C166.197 127.585 167.129 128.512 167.778 129.63C168.427 130.748 168.769 132.018 168.768 133.31V150.455C168.769 151.748 168.427 153.017 167.778 154.135C167.129 155.253 166.197 156.18 165.074 156.821L146.749 167.292C145.642 167.924 144.389 168.257 143.114 168.257C141.838 168.257 140.585 167.924 139.478 167.292L121.153 156.821C120.031 156.18 119.098 155.253 118.449 154.135C117.8 153.017 117.459 151.748 117.459 150.455V140.186" stroke="#2B2F7E" stroke-opacity="0.25" stroke-width="1.64615" stroke-linecap="round" stroke-linejoin="round"/>
<path d="M129.643 145.665L110.378 133.564L118.783 130.856L138.199 142.703L129.643 145.665Z" fill="white"/>
<path fill-rule="evenodd" clip-rule="evenodd" d="M141.818 143.032C143.793 142.703 141.264 143.032 142.477 143.032C143.384 142.219 145.029 141.385 146.096 140.81L166.5 130.198L141.818 143.032ZM142.147 143.691L142.806 166.726L142.147 143.691Z" fill="white"/>
<path d="M142.147 143.691L142.806 166.726M141.818 143.032C143.793 142.703 141.264 143.032 142.477 143.032C143.384 142.219 145.029 141.385 146.096 140.81L166.5 130.198L141.818 143.032Z" stroke="#2B2F7E" stroke-opacity="0.25" stroke-width="1.64615" stroke-linecap="round" stroke-linejoin="round"/>
<path opacity="0.25" d="M108.647 133.133L118.659 130.427L139.208 142.816L129.421 146.078L108.647 133.133ZM173.965 121.172L167.422 126.246L145.06 113.201L149.97 107.461L173.965 121.172Z" stroke="#2B2F7E" stroke-width="1.64615" stroke-linecap="round" stroke-linejoin="round"/>
<path d="M174.67 137.085L151.691 149.614L146.096 143.96L170.448 131.185L174.67 137.085Z" fill="white"/>
<path opacity="0.25" d="M111.245 121.316L117.885 126.895L141.134 113.566L135.102 107.533L111.245 121.316ZM144.809 143.903L151.515 150.889L176.286 136.988L170.267 130.243L144.809 143.903Z" fill="white" stroke="#2B2F7E" stroke-width="1.64615" stroke-linecap="round" stroke-linejoin="round"/>
<circle cx="104.34" cy="128.507" r="2.33957" fill="#F9F9F9"/>
<circle cx="104.34" cy="128.507" r="3.16264" stroke="#2B2F7E" stroke-opacity="0.3" stroke-width="1.64615"/>
<line x1="182.44" y1="120.201" x2="182.44" y2="125.582" stroke="#2B2F7E" stroke-opacity="0.3" stroke-width="1.17031" stroke-linecap="round"/>
<line x1="185.012" y1="123.009" x2="179.632" y2="123.009" stroke="#2B2F7E" stroke-opacity="0.3" stroke-width="1.17031" stroke-linecap="round"/>
<line x1="160.12" y1="173.46" x2="160.12" y2="178.071" stroke="#2B2F7E" stroke-opacity="0.3" stroke-width="1.00312" stroke-linecap="round"/>
<line x1="162.327" y1="175.866" x2="157.715" y2="175.866" stroke="#2B2F7E" stroke-opacity="0.3" stroke-width="1.00312" stroke-linecap="round"/>
<g opacity="0.4">
<path fill-rule="evenodd" clip-rule="evenodd" d="M141.082 155.147C169.256 155.147 194.627 157.446 212.362 161.116C229.707 161.232 243.672 166.427 243.672 172.82C243.672 177.886 234.901 182.2 222.626 183.829C219.696 184.696 216.399 185.513 212.776 186.272C212.871 186.756 212.918 187.245 212.918 187.738C212.918 198.892 188.668 207.934 158.754 207.934C131.841 207.934 109.513 200.615 105.304 191.024C69.3925 188.297 44 181.585 44 173.738C44 163.471 87.4651 155.147 141.082 155.147Z" fill="#E7EAF0"/>
<path d="M93.9313 62.8709H90.5753C90.5753 56.1529 85.1294 50.707 78.4115 50.707C71.6935 50.707 66.2474 56.1529 66.2474 62.8709H63.7961C60.7055 62.8709 58.2002 65.5941 58.2002 68.9531C58.2002 72.312 60.7057 75.0349 63.7961 75.0349H93.9315C97.0224 75.0349 99.5276 72.3119 99.5276 68.9531C99.5276 65.5939 97.0223 62.8709 93.9313 62.8709Z" fill="url(#paint0_linear_6097_13282)"/>
<path d="M201.879 50.7212H199.473C199.473 45.9044 195.568 42 190.752 42C185.934 42 182.03 45.9044 182.03 50.7212H180.272C178.056 50.7212 176.26 52.6739 176.26 55.0822C176.26 57.4905 178.056 59.4426 180.272 59.4426H201.879C204.095 59.4426 205.892 57.4905 205.892 55.0822C205.892 52.6739 204.095 50.7212 201.879 50.7212Z" fill="url(#paint1_linear_6097_13282)"/>
<path d="M223.16 148.523C223.199 148.674 223.246 148.835 223.304 149.005L223.419 149.459C223.457 149.61 223.476 149.733 223.476 149.827C223.476 150.356 223.332 150.824 223.046 151.23C222.759 151.637 222.386 151.934 221.927 152.123C221.755 152.142 221.573 152.152 221.382 152.152C221.229 152.17 221.057 152.18 220.865 152.18H220.32L215.845 152.237V156.97C215.845 157.669 215.859 158.373 215.888 159.082C215.917 159.791 215.95 160.428 215.988 160.995C216.026 161.676 216.074 162.328 216.132 162.951H212.001L212.087 161.846C212.106 161.411 212.125 160.821 212.144 160.074C212.163 159.328 212.173 158.331 212.173 157.084V152.747C211.848 153.03 211.484 153.172 211.083 153.172C210.757 153.172 210.475 153.096 210.236 152.945C209.997 152.794 209.801 152.586 209.648 152.322L206.406 152.152C205.775 152 205.249 151.684 204.828 151.202C204.408 150.72 204.197 150.148 204.197 149.487C204.197 149.374 204.207 149.27 204.226 149.175C204.245 149.081 204.274 148.986 204.312 148.892L205.029 147.248C205.067 146.832 205.187 146.445 205.388 146.086C205.589 145.727 205.842 145.415 206.148 145.15L210.652 136.902H210.681C211.044 136.24 211.475 135.673 211.972 135.201C212.469 134.728 213.11 134.492 213.894 134.492C214.583 134.492 215.199 134.672 215.744 135.031C216.289 135.39 216.696 135.862 216.964 136.448L220.578 143.449C221.229 143.676 221.764 144.073 222.185 144.64C222.606 145.207 222.816 145.859 222.816 146.596C222.816 146.898 222.768 147.219 222.673 147.56L223.16 148.523Z" fill="url(#paint2_linear_6097_13282)"/>
<path d="M241.521 157.704C241.559 157.855 241.607 158.016 241.664 158.186L241.779 158.639C241.817 158.791 241.836 158.913 241.836 159.008C241.836 159.537 241.693 160.005 241.406 160.411C241.119 160.817 240.746 161.115 240.287 161.304C240.115 161.323 239.933 161.332 239.742 161.332C239.589 161.351 239.417 161.361 239.226 161.361H238.681L234.205 161.417V166.151C234.205 166.85 234.219 167.554 234.248 168.263C234.277 168.971 234.31 169.609 234.349 170.176C234.387 170.856 234.435 171.508 234.492 172.132H230.361L230.447 171.026C230.466 170.592 230.485 170.001 230.504 169.255C230.523 168.508 230.533 167.512 230.533 166.264V161.927C230.208 162.211 229.844 162.353 229.443 162.353C229.118 162.353 228.836 162.277 228.597 162.126C228.357 161.975 228.161 161.767 228.008 161.502L224.767 161.332C224.135 161.181 223.61 160.865 223.189 160.383C222.768 159.901 222.558 159.329 222.558 158.668C222.558 158.554 222.567 158.45 222.586 158.356C222.605 158.261 222.634 158.167 222.672 158.072L223.39 156.428C223.428 156.013 223.547 155.625 223.748 155.266C223.949 154.907 224.202 154.595 224.508 154.331L229.013 146.082H229.041C229.405 145.421 229.835 144.854 230.332 144.381C230.829 143.909 231.47 143.673 232.254 143.673C232.943 143.673 233.56 143.852 234.105 144.211C234.65 144.57 235.056 145.043 235.324 145.629L238.939 152.63C239.589 152.857 240.125 153.254 240.545 153.821C240.966 154.388 241.176 155.039 241.176 155.776C241.176 156.079 241.129 156.4 241.033 156.74L241.521 157.704Z" fill="url(#paint3_linear_6097_13282)"/>
<path d="M79.3603 154.407C79.4141 154.622 79.4812 154.85 79.5618 155.091L79.723 155.735C79.7768 155.95 79.8036 156.124 79.8036 156.258C79.8036 157.009 79.6021 157.673 79.1991 158.25C78.7961 158.826 78.2722 159.249 77.6274 159.517C77.3856 159.544 77.1304 159.557 76.8617 159.557C76.6468 159.584 76.405 159.597 76.1363 159.597H75.3706L69.0837 159.678V166.397C69.0837 167.389 69.1039 168.388 69.1442 169.394C69.1845 170.4 69.2315 171.305 69.2852 172.11C69.3389 173.075 69.4061 174.001 69.4867 174.886H63.6834L63.8043 173.317C63.8312 172.7 63.8581 171.862 63.8849 170.802C63.9118 169.743 63.9252 168.328 63.9252 166.558V160.402C63.4685 160.804 62.958 161.005 62.3938 161.005C61.9371 161.005 61.5408 160.898 61.2049 160.684C60.8691 160.469 60.5937 160.174 60.3788 159.798L55.8248 159.557C54.9382 159.343 54.1994 158.893 53.6083 158.209C53.0172 157.525 52.7217 156.714 52.7217 155.775C52.7217 155.614 52.7351 155.467 52.762 155.333C52.7888 155.199 52.8291 155.064 52.8829 154.93L53.8904 152.597C53.9441 152.007 54.112 151.457 54.3942 150.947C54.6763 150.438 55.0322 149.995 55.4621 149.62L61.7893 137.912H61.8296C62.3401 136.973 62.9446 136.169 63.6431 135.498C64.3417 134.827 65.2417 134.492 66.3433 134.492C67.3105 134.492 68.1769 134.747 68.9426 135.257C69.7084 135.766 70.2793 136.437 70.6554 137.268L75.7333 147.206C76.6468 147.528 77.399 148.091 77.9901 148.895C78.5812 149.7 78.8767 150.625 78.8767 151.672C78.8767 152.101 78.8096 152.557 78.6752 153.039L79.3603 154.407Z" fill="url(#paint4_linear_6097_13282)"/>
</g>
<defs>
<linearGradient id="paint0_linear_6097_13282" x1="117.955" y1="66.9849" x2="70.3995" y2="67.2768" gradientUnits="userSpaceOnUse">
<stop stop-color="#E0E5EF" stop-opacity="0"/>
<stop offset="1" stop-color="#E0E5EF"/>
</linearGradient>
<linearGradient id="paint1_linear_6097_13282" x1="219.104" y1="53.6708" x2="185.007" y2="53.8801" gradientUnits="userSpaceOnUse">
<stop stop-color="#E0E5EF" stop-opacity="0"/>
<stop offset="1" stop-color="#E0E5EF"/>
</linearGradient>
<linearGradient id="paint2_linear_6097_13282" x1="222.205" y1="162.61" x2="212.022" y2="162.766" gradientUnits="userSpaceOnUse">
<stop stop-color="#E0E5EF" stop-opacity="0"/>
<stop offset="1" stop-color="#E0E5EF"/>
</linearGradient>
<linearGradient id="paint3_linear_6097_13282" x1="240.565" y1="171.79" x2="230.382" y2="171.947" gradientUnits="userSpaceOnUse">
<stop stop-color="#E0E5EF" stop-opacity="0"/>
<stop offset="1" stop-color="#E0E5EF"/>
</linearGradient>
<linearGradient id="paint4_linear_6097_13282" x1="77.7774" y1="174.401" x2="63.7649" y2="174.619" gradientUnits="userSpaceOnUse">
<stop stop-color="#E0E5EF" stop-opacity="0"/>
<stop offset="1" stop-color="#E0E5EF"/>
</linearGradient>
</defs>
</svg>
